<svg width="14" height="13" viewBox="0 0 14 13" fill="none" xmlns="http://www.w3.org/2000/svg">
<path d="M2.9836 4.91904e-06C2.96375 -0.000172391 2.94417 0.0044463 2.92662 0.0134449C2.90907 0.0224435 2.8941 0.0355392 2.88306 0.0515521C2.87203 0.0675649 2.86527 0.0859917 2.86339 0.105172C2.86152 0.124353 2.86459 0.143684 2.87233 0.161424L2.94113 0.31907L4.15849 3.07423C4.16676 3.09297 4.17997 3.10927 4.19679 3.12148C4.21361 3.13369 4.23345 3.14139 4.2543 3.1438C4.27516 3.14622 4.2963 3.14326 4.31561 3.13522C4.33491 3.12719 4.3517 3.11437 4.36428 3.09804L6.61116 0.185812C6.62449 0.168558 6.63261 0.148042 6.63461 0.126563C6.6366 0.105084 6.6324 0.0834893 6.62246 0.0641996C6.61252 0.0449098 6.59725 0.0286869 6.57835 0.0173487C6.55945 0.0060105 6.53767 4.91904e-06 6.51545 4.91904e-06H2.9836ZM11.9032 0.756586L10.6685 3.55443C10.6608 3.57209 10.6576 3.59135 10.6594 3.61047C10.6612 3.6296 10.6678 3.648 10.6788 3.66402C10.6897 3.68004 10.7045 3.69319 10.7219 3.70229C10.7393 3.71138 10.7588 3.71614 10.7786 3.71614H13.7996C13.8209 3.71615 13.8419 3.71062 13.8602 3.70013C13.8786 3.68964 13.8938 3.67457 13.9042 3.65647C13.9146 3.63838 13.9198 3.61793 13.9192 3.59723C13.9187 3.57653 13.9125 3.55634 13.9013 3.53875L12.1147 0.741199C12.1032 0.723188 12.0868 0.708589 12.0673 0.698988C12.0478 0.689386 12.026 0.685148 12.0042 0.686734C11.9824 0.68832 11.9615 0.695668 11.9437 0.707983C11.9259 0.720297 11.9119 0.737106 11.9032 0.756586ZM1.88528 0.74236L0.099322 3.53875C0.0880697 3.55634 0.081867 3.57653 0.0813566 3.59723C0.0808462 3.61793 0.0860465 3.63838 0.0964189 3.65647C0.106791 3.67457 0.121959 3.68964 0.14035 3.70013C0.158741 3.71062 0.179687 3.71615 0.201018 3.71614H3.22199C3.24179 3.71611 3.26127 3.71132 3.27869 3.70219C3.29611 3.69306 3.31093 3.67988 3.32181 3.66382C3.33269 3.64776 3.33929 3.62934 3.34103 3.6102C3.34277 3.59105 3.33958 3.57179 3.33176 3.55414L2.09466 0.757747C2.08581 0.738752 2.07186 0.722418 2.05427 0.710461C2.03667 0.698503 2.01609 0.691363 1.99467 0.689789C1.97326 0.688215 1.9518 0.692266 1.93255 0.701516C1.9133 0.710766 1.89698 0.724874 1.88528 0.74236ZM11.1058 4.91904e-06H7.35354C7.34272 -6.30608e-05 7.33209 0.00281063 7.32285 0.00830104C7.31362 0.0137915 7.30615 0.0216796 7.3013 0.0310734C7.29645 0.0404673 7.2944 0.0509921 7.29538 0.0614577C7.29637 0.0719234 7.30035 0.0819124 7.30688 0.0902953L9.69734 3.18107C9.70344 3.18901 9.71159 3.19525 9.72097 3.19915C9.73035 3.20306 9.74062 3.2045 9.75075 3.20332C9.76088 3.20214 9.77052 3.19839 9.77868 3.19245C9.78684 3.1865 9.79324 3.17857 9.79724 3.16946L11.0559 0.31936L11.1576 0.0772308C11.1612 0.0689198 11.1626 0.0598895 11.1618 0.0509133C11.161 0.0419371 11.158 0.0332824 11.153 0.0256908C11.148 0.0180991 11.1412 0.0117967 11.1331 0.00732323C11.1251 0.00284978 11.116 0.000338627 11.1067 4.91904e-06H11.1058ZM6.49152 12.0774L3.81661 4.71804C3.80876 4.69667 3.79427 4.67819 3.77515 4.66514C3.75603 4.65209 3.73321 4.64511 3.70983 4.64517H0.111585C0.0907412 4.64511 0.0702995 4.65074 0.0525894 4.66141C0.0348794 4.67208 0.0206131 4.68736 0.0114163 4.70552C0.00221937 4.72367 -0.00153827 4.74397 0.000571459 4.7641C0.00268119 4.78423 0.0105735 4.80338 0.023349 4.81936L6.48404 12.9429C6.50591 12.9704 6.53711 12.9895 6.5721 12.9967C6.60709 13.004 6.64361 12.999 6.67517 12.9827C6.70691 12.9664 6.7316 12.9397 6.74472 12.9073C6.75784 12.8749 6.75853 12.839 6.74666 12.8061L6.49152 12.0774ZM13.8884 4.64517H10.2902C10.2669 4.64516 10.2442 4.65217 10.2253 4.66523C10.2063 4.67828 10.192 4.69674 10.1843 4.71804L7.24706 12.7937C7.23473 12.8276 7.23524 12.8646 7.2485 12.8982C7.26176 12.9318 7.28692 12.9596 7.31944 12.9769C7.35198 12.994 7.38972 12.9993 7.42593 12.9919C7.46214 12.9845 7.49447 12.9649 7.51715 12.9365L13.9767 4.81936C13.9894 4.80338 13.9973 4.78423 13.9994 4.7641C14.0015 4.74397 13.9978 4.72367 13.9886 4.70552C13.9794 4.68736 13.9651 4.67208 13.9474 4.66141C13.9297 4.65074 13.9093 4.64511 13.8884 4.64517ZM7.09571 1.36249L8.77071 3.53033C8.78404 3.54758 8.79216 3.5681 8.79415 3.58958C8.79615 3.61106 8.79194 3.63265 8.78201 3.65194C8.77207 3.67123 8.75679 3.68745 8.73789 3.69879C8.71899 3.71013 8.69721 3.71614 8.67499 3.71614H5.32501C5.30279 3.71614 5.28101 3.71013 5.26211 3.69879C5.2432 3.68745 5.22793 3.67123 5.21799 3.65194C5.20806 3.63265 5.20385 3.61106 5.20585 3.58958C5.20784 3.5681 5.21596 3.54758 5.22929 3.53033L6.90429 1.36249C6.91543 1.34807 6.92988 1.33636 6.94649 1.3283C6.96311 1.32024 6.98143 1.31604 7 1.31604C7.01857 1.31604 7.03689 1.32024 7.0535 1.3283C7.07012 1.33636 7.08457 1.34807 7.09571 1.36249ZM6.88634 10.3715L4.86139 4.79991C4.85503 4.7824 4.85309 4.76367 4.85573 4.74528C4.85836 4.7269 4.8655 4.70939 4.87655 4.69424C4.88759 4.67908 4.90222 4.66672 4.9192 4.65818C4.93618 4.64964 4.95503 4.64518 4.97415 4.64517H9.02585C9.04497 4.64518 9.06382 4.64964 9.0808 4.65818C9.09778 4.66672 9.11241 4.67908 9.12345 4.69424C9.1345 4.70939 9.14163 4.7269 9.14427 4.74528C9.14691 4.76367 9.14497 4.7824 9.13861 4.79991L7.11276 10.3715C7.1045 10.3941 7.08922 10.4137 7.06903 10.4275C7.04884 10.4414 7.02472 10.4488 7 10.4488C6.97528 10.4488 6.95116 10.4414 6.93097 10.4275C6.91078 10.4137 6.8955 10.3941 6.88724 10.3715H6.88634Z" fill="#00E083"/>
</svg>
