<svg width="980" height="482" viewBox="0 0 980 482" fill="none" xmlns="http://www.w3.org/2000/svg">
<rect x="40.5" width="898" height="43" rx="21.5" fill="#002024"/>
<path d="M4.5 86L59 10.5H922.5L974.5 86H614C524.5 55 459 56 376 86H4.5Z" fill="url(#paint0_linear_2517_935)"/>
<g filter="url(#filter0_i_2517_935)">
<path d="M151.6 12.5L122.6 71.5H109L140.6 12.5H151.6Z" fill="url(#paint1_linear_2517_935)"/>
<path d="M179.5 71.5H165L191.5 12.5H205L179.5 71.5Z" fill="url(#paint2_linear_2517_935)"/>
<path d="M235.5 71.5H222.5L242.5 12.5H256L235.5 71.5Z" fill="url(#paint3_linear_2517_935)"/>
<path d="M293 71.5H279L295 12.5H309L293 71.5Z" fill="url(#paint4_linear_2517_935)"/>
<path d="M348 12.5L337 71.5H350.5L359.5 12.5H348Z" fill="url(#paint5_linear_2517_935)"/>
<path d="M412.5 12.5H400.5L393.5 66.5L407 61.5L412.5 12.5Z" fill="url(#paint6_linear_2517_935)"/>
<path d="M464 12.5H452.5V50.5L464 49.5V12.5Z" fill="url(#paint7_linear_2517_935)"/>
<path d="M516 12.5H506V49.5L517.5 50.5L516 12.5Z" fill="url(#paint8_linear_2517_935)"/>
</g>
<g filter="url(#filter1_i_2517_935)">
<path d="M817.9 12.5L846.9 71.5H860.5L828.9 12.5H817.9Z" fill="url(#paint9_linear_2517_935)"/>
<path d="M790 71.5H804.5L778 12.5H764.5L790 71.5Z" fill="url(#paint10_linear_2517_935)"/>
<path d="M734 71.5H747L727 12.5H713.5L734 71.5Z" fill="url(#paint11_linear_2517_935)"/>
<path d="M676.5 71.5H690.5L674.5 12.5H660.5L676.5 71.5Z" fill="url(#paint12_linear_2517_935)"/>
<path d="M621.5 12.5L632.5 71.5H619L610 12.5H621.5Z" fill="url(#paint13_linear_2517_935)"/>
<path d="M557 12.5H569L574.5 64.5L562 61.5L557 12.5Z" fill="url(#paint14_linear_2517_935)"/>
</g>
<path d="M373.933 88.4902C459.349 44.1156 538.608 57.8681 603.087 88.8564C606.387 90.4425 610.034 91.3027 613.782 91.3027H962.955L942.833 155.166H38.0693L17.2285 91.3027H362.505C366.564 91.3027 370.486 90.2808 373.933 88.4902Z" fill="url(#paint15_linear_2517_935)" stroke="#00E083" stroke-width="25"/>
<path d="M827.074 109.5C853.04 117.999 864.848 165.734 865.925 230.654L854.355 237.379C853.881 237.655 853.881 238.345 854.355 238.621L865.99 245.383C865.471 315.676 853.537 402.906 834.074 482H138.574C121.724 415.124 111.263 322.187 113.24 245.829L125.644 238.621C126.118 238.345 126.118 237.655 125.644 237.379L113.816 230.505C117.109 164.661 130.601 114.276 158.574 109.5H827.074Z" fill="url(#paint16_linear_2517_935)"/>
<path d="M261.465 195V186.04L252.121 171.64H257.881L264.025 181.304L270.105 171.64H275.833L266.489 186.04V195H261.465ZM284.007 195.48C278.279 195.48 274.311 191.704 274.311 186.264C274.311 180.856 278.279 177.08 284.007 177.08C289.767 177.08 293.735 180.856 293.735 186.264C293.735 191.704 289.767 195.48 284.007 195.48ZM284.007 191.384C286.887 191.384 288.807 189.336 288.807 186.264C288.807 183.224 286.887 181.176 284.007 181.176C281.159 181.176 279.207 183.224 279.207 186.264C279.207 189.336 281.159 191.384 284.007 191.384ZM303.833 195.48C299.833 195.48 297.241 192.76 297.241 188.568V177.56H301.977V187.608C301.977 189.912 303.385 191.352 305.625 191.352C308.089 191.352 309.785 189.624 309.785 187.064V177.56H314.521V195H309.785V192.76C308.409 194.392 306.361 195.48 303.833 195.48ZM323.664 180.28C325.2 178.168 327.632 176.952 330.608 177.112V181.88C329.936 181.752 329.456 181.752 329.136 181.752C325.648 181.752 323.664 183.96 323.664 187.16V195H318.928V177.56H323.664V180.28ZM350.226 195.48C344.498 195.48 340.53 191.704 340.53 186.264C340.53 180.856 344.498 177.08 350.226 177.08C355.986 177.08 359.954 180.856 359.954 186.264C359.954 191.704 355.986 195.48 350.226 195.48ZM350.226 191.384C353.106 191.384 355.026 189.336 355.026 186.264C355.026 183.224 353.106 181.176 350.226 181.176C347.378 181.176 345.426 183.224 345.426 186.264C345.426 189.336 347.378 191.384 350.226 191.384ZM368.196 180.28C369.732 178.168 372.164 176.952 375.14 177.112V181.88C374.468 181.752 373.988 181.752 373.668 181.752C370.18 181.752 368.196 183.96 368.196 187.16V195H363.46V177.56H368.196V180.28ZM384.43 195.48C379.822 195.48 376.686 191.768 376.686 186.264C376.686 180.792 379.822 177.08 384.43 177.08C386.798 177.08 389.134 178.296 390.382 180.216V170.36H395.118V195H390.446V192.28C389.166 194.2 386.798 195.48 384.43 195.48ZM386.03 191.352C388.59 191.352 390.414 189.304 390.414 186.264C390.414 183.256 388.59 181.208 386.03 181.208C383.406 181.208 381.614 183.256 381.614 186.264C381.614 189.304 383.406 191.352 386.03 191.352ZM416.034 185.784C416.034 186.328 416.034 186.968 415.938 187.544H403.554C404.098 190.36 406.178 191.608 409.058 191.608C410.69 191.608 412.514 191.224 414.466 190.456L415.586 193.912C413.506 195 411.042 195.48 408.642 195.48C402.786 195.48 398.53 191.992 398.53 186.264C398.53 180.856 402.242 177.08 407.618 177.08C412.77 177.08 416.034 180.472 416.034 185.784ZM407.522 180.792C405.442 180.792 403.938 182.232 403.522 184.664H411.49C411.33 182.392 410.05 180.792 407.522 180.792ZM424.321 180.28C425.857 178.168 428.289 176.952 431.265 177.112V181.88C430.593 181.752 430.113 181.752 429.793 181.752C426.305 181.752 424.321 183.96 424.321 187.16V195H419.585V177.56H424.321V180.28ZM446.114 195L440.034 177.56H445.186L448.738 189.432L452.002 177.56H456.706L460.034 189.432L463.522 177.56H468.482L462.53 195H457.506L454.242 183.224L450.946 195H446.114ZM473.201 174.936C471.729 174.936 470.513 173.752 470.513 172.248C470.545 170.744 471.729 169.56 473.201 169.56C474.737 169.56 475.889 170.744 475.889 172.248C475.921 173.752 474.737 174.936 473.201 174.936ZM470.865 195V177.56H475.569V195H470.865ZM480.053 195V170.36H484.789V195H480.053ZM489.335 195V170.36H494.071V195H489.335ZM517.554 195.48C515.186 195.48 512.818 194.2 511.538 192.28V195H506.866V170.36H511.602V180.216C512.85 178.296 515.186 177.08 517.554 177.08C522.162 177.08 525.298 180.792 525.298 186.264C525.298 191.768 522.162 195.48 517.554 195.48ZM515.986 191.352C518.578 191.352 520.37 189.304 520.37 186.264C520.37 183.256 518.578 181.208 515.986 181.208C513.394 181.208 511.57 183.256 511.57 186.264C511.57 189.304 513.394 191.352 515.986 191.352ZM545.347 185.784C545.347 186.328 545.347 186.968 545.251 187.544H532.867C533.411 190.36 535.491 191.608 538.371 191.608C540.003 191.608 541.827 191.224 543.779 190.456L544.899 193.912C542.819 195 540.355 195.48 537.955 195.48C532.099 195.48 527.843 191.992 527.843 186.264C527.843 180.856 531.555 177.08 536.931 177.08C542.083 177.08 545.347 180.472 545.347 185.784ZM536.835 180.792C534.755 180.792 533.251 182.232 532.835 184.664H540.803C540.643 182.392 539.363 180.792 536.835 180.792ZM557.147 201.4V177.56H561.819V180.28C563.099 178.36 565.467 177.08 567.835 177.08C572.443 177.08 575.579 180.792 575.579 186.296C575.579 191.768 572.443 195.48 567.835 195.48C565.467 195.48 563.131 194.264 561.883 192.344V201.4H557.147ZM566.267 191.352C568.859 191.352 570.651 189.304 570.651 186.264C570.651 183.256 568.859 181.208 566.267 181.208C563.675 181.208 561.851 183.256 561.851 186.264C561.851 189.304 563.675 191.352 566.267 191.352ZM583.852 180.28C585.388 178.168 587.82 176.952 590.796 177.112V181.88C590.124 181.752 589.644 181.752 589.324 181.752C585.836 181.752 583.852 183.96 583.852 187.16V195H579.116V177.56H583.852V180.28ZM602.039 195.48C596.311 195.48 592.343 191.704 592.343 186.264C592.343 180.856 596.311 177.08 602.039 177.08C607.799 177.08 611.767 180.856 611.767 186.264C611.767 191.704 607.799 195.48 602.039 195.48ZM602.039 191.384C604.919 191.384 606.839 189.336 606.839 186.264C606.839 183.224 604.919 181.176 602.039 181.176C599.191 181.176 597.239 183.224 597.239 186.264C597.239 189.336 599.191 191.384 602.039 191.384ZM624.104 195.48C618.536 195.48 614.28 192.024 614.28 186.264C614.28 180.536 618.536 177.112 624.104 177.08C626.28 177.08 628.264 177.496 630.408 178.488L629.224 182.424C627.56 181.592 625.896 181.208 624.424 181.208C621.352 181.208 619.208 182.968 619.208 186.264C619.208 189.592 621.352 191.352 624.424 191.352C625.896 191.352 627.528 190.968 629.224 190.136L630.376 194.072C628.264 195.064 626.28 195.48 624.104 195.48ZM650.065 185.784C650.065 186.328 650.065 186.968 649.969 187.544H637.585C638.129 190.36 640.209 191.608 643.089 191.608C644.721 191.608 646.545 191.224 648.497 190.456L649.617 193.912C647.537 195 645.073 195.48 642.673 195.48C636.817 195.48 632.561 191.992 632.561 186.264C632.561 180.856 636.273 177.08 641.649 177.08C646.801 177.08 650.065 180.472 650.065 185.784ZM641.553 180.792C639.473 180.792 637.969 182.232 637.553 184.664H645.521C645.361 182.392 644.081 180.792 641.553 180.792ZM660.24 195.48C657.712 195.48 654.864 194.904 652.464 193.624L653.744 190.008C655.44 190.968 658.096 191.768 660.464 191.768C662.288 191.768 663.312 191.096 663.312 189.976C663.312 188.856 661.872 188.472 659.856 188.056C656.56 187.416 653.008 186.648 653.008 182.68C653.008 179.256 655.824 177.08 660.56 177.08C662.64 177.08 664.944 177.528 667.088 178.424L665.712 181.848C664.272 181.176 662.192 180.696 660.56 180.696C658.736 180.696 657.616 181.208 657.616 182.328C657.616 183.416 659.184 183.8 661.072 184.216C664.528 184.92 667.888 185.88 667.888 189.496C667.888 193.144 664.944 195.48 660.24 195.48ZM677.802 195.48C675.274 195.48 672.426 194.904 670.026 193.624L671.306 190.008C673.002 190.968 675.658 191.768 678.026 191.768C679.85 191.768 680.874 191.096 680.874 189.976C680.874 188.856 679.434 188.472 677.418 188.056C674.122 187.416 670.57 186.648 670.57 182.68C670.57 179.256 673.386 177.08 678.122 177.08C680.202 177.08 682.506 177.528 684.65 178.424L683.274 181.848C681.834 181.176 679.754 180.696 678.122 180.696C676.298 180.696 675.178 181.208 675.178 182.328C675.178 183.416 676.746 183.8 678.634 184.216C682.09 184.92 685.45 185.88 685.45 189.496C685.45 193.144 682.506 195.48 677.802 195.48ZM705.597 185.784C705.597 186.328 705.597 186.968 705.501 187.544H693.117C693.661 190.36 695.741 191.608 698.621 191.608C700.253 191.608 702.077 191.224 704.029 190.456L705.149 193.912C703.069 195 700.605 195.48 698.205 195.48C692.349 195.48 688.093 191.992 688.093 186.264C688.093 180.856 691.805 177.08 697.181 177.08C702.333 177.08 705.597 180.472 705.597 185.784ZM697.085 180.792C695.005 180.792 693.501 182.232 693.085 184.664H701.053C700.893 182.392 699.613 180.792 697.085 180.792ZM715.899 195.48C711.291 195.48 708.155 191.768 708.155 186.264C708.155 180.792 711.291 177.08 715.899 177.08C718.267 177.08 720.603 178.296 721.851 180.216V170.36H726.587V195H721.915V192.28C720.635 194.2 718.267 195.48 715.899 195.48ZM717.499 191.352C720.059 191.352 721.883 189.304 721.883 186.264C721.883 183.256 720.059 181.208 717.499 181.208C714.875 181.208 713.083 183.256 713.083 186.264C713.083 189.304 714.875 191.352 717.499 191.352Z" fill="#002024"/>
<path fill-rule="evenodd" clip-rule="evenodd" d="M768.297 172.709C768.747 173.162 769 173.777 769 174.418C769 175.059 768.747 175.673 768.297 176.127L750.298 194.245C750.06 194.484 749.778 194.674 749.467 194.804C749.156 194.933 748.823 195 748.487 195C748.151 195 747.817 194.933 747.507 194.804C747.196 194.674 746.913 194.484 746.676 194.245L737.733 185.244C737.504 185.021 737.321 184.755 737.195 184.46C737.069 184.165 737.003 183.848 737 183.527C736.997 183.206 737.058 182.887 737.179 182.59C737.3 182.293 737.478 182.023 737.703 181.796C737.929 181.569 738.197 181.39 738.492 181.268C738.787 181.147 739.103 181.086 739.422 181.089C739.741 181.091 740.056 181.158 740.349 181.285C740.642 181.411 740.907 181.596 741.129 181.826L748.486 189.233L764.9 172.709C765.123 172.484 765.388 172.306 765.679 172.184C765.971 172.063 766.283 172 766.598 172C766.914 172 767.226 172.063 767.518 172.184C767.809 172.306 768.074 172.484 768.297 172.709Z" fill="#002024"/>
<defs>
<filter id="filter0_i_2517_935" x="109" y="12.5" width="408.5" height="63" filterUnits="userSpaceOnUse" color-interpolation-filters="sRGB">
<feFlood flood-opacity="0" result="BackgroundImageFix"/>
<feBlend mode="normal" in="SourceGraphic" in2="BackgroundImageFix" result="shape"/>
<feColorMatrix in="SourceAlpha" type="matrix" values="0 0 0 0 0 0 0 0 0 0 0 0 0 0 0 0 0 0 127 0" result="hardAlpha"/>
<feOffset dy="4"/>
<feGaussianBlur stdDeviation="2"/>
<feComposite in2="hardAlpha" operator="arithmetic" k2="-1" k3="1"/>
<feColorMatrix type="matrix" values="0 0 0 0 0 0 0 0 0 0.12549 0 0 0 0 0.141176 0 0 0 0.25 0"/>
<feBlend mode="normal" in2="shape" result="effect1_innerShadow_2517_935"/>
</filter>
<filter id="filter1_i_2517_935" x="557" y="12.5" width="303.5" height="63" filterUnits="userSpaceOnUse" color-interpolation-filters="sRGB">
<feFlood flood-opacity="0" result="BackgroundImageFix"/>
<feBlend mode="normal" in="SourceGraphic" in2="BackgroundImageFix" result="shape"/>
<feColorMatrix in="SourceAlpha" type="matrix" values="0 0 0 0 0 0 0 0 0 0 0 0 0 0 0 0 0 0 127 0" result="hardAlpha"/>
<feOffset dy="4"/>
<feGaussianBlur stdDeviation="2"/>
<feComposite in2="hardAlpha" operator="arithmetic" k2="-1" k3="1"/>
<feColorMatrix type="matrix" values="0 0 0 0 0 0 0 0 0 0.12549 0 0 0 0 0.141176 0 0 0 0.25 0"/>
<feBlend mode="normal" in2="shape" result="effect1_innerShadow_2517_935"/>
</filter>
<linearGradient id="paint0_linear_2517_935" x1="489.5" y1="10.5" x2="489.5" y2="86" gradientUnits="userSpaceOnUse">
<stop stop-color="#002024"/>
<stop offset="1" stop-color="#00E083"/>
</linearGradient>
<linearGradient id="paint1_linear_2517_935" x1="130.3" y1="71.5" x2="130.3" y2="12.5" gradientUnits="userSpaceOnUse">
<stop stop-color="#00E083"/>
<stop offset="1" stop-color="#002024"/>
</linearGradient>
<linearGradient id="paint2_linear_2517_935" x1="130.3" y1="71.5" x2="130.3" y2="12.5" gradientUnits="userSpaceOnUse">
<stop stop-color="#00E083"/>
<stop offset="1" stop-color="#002024"/>
</linearGradient>
<linearGradient id="paint3_linear_2517_935" x1="130.3" y1="71.5" x2="130.3" y2="12.5" gradientUnits="userSpaceOnUse">
<stop stop-color="#00E083"/>
<stop offset="1" stop-color="#002024"/>
</linearGradient>
<linearGradient id="paint4_linear_2517_935" x1="130.3" y1="71.5" x2="130.3" y2="12.5" gradientUnits="userSpaceOnUse">
<stop stop-color="#00E083"/>
<stop offset="1" stop-color="#002024"/>
</linearGradient>
<linearGradient id="paint5_linear_2517_935" x1="130.3" y1="71.5" x2="130.3" y2="12.5" gradientUnits="userSpaceOnUse">
<stop stop-color="#00E083"/>
<stop offset="1" stop-color="#002024"/>
</linearGradient>
<linearGradient id="paint6_linear_2517_935" x1="130.3" y1="71.5" x2="130.3" y2="12.5" gradientUnits="userSpaceOnUse">
<stop stop-color="#00E083"/>
<stop offset="1" stop-color="#002024"/>
</linearGradient>
<linearGradient id="paint7_linear_2517_935" x1="130.3" y1="71.5" x2="130.3" y2="12.5" gradientUnits="userSpaceOnUse">
<stop stop-color="#00E083"/>
<stop offset="1" stop-color="#002024"/>
</linearGradient>
<linearGradient id="paint8_linear_2517_935" x1="130.3" y1="71.5" x2="130.3" y2="12.5" gradientUnits="userSpaceOnUse">
<stop stop-color="#00E083"/>
<stop offset="1" stop-color="#002024"/>
</linearGradient>
<linearGradient id="paint9_linear_2517_935" x1="839.2" y1="71.5" x2="839.2" y2="12.5" gradientUnits="userSpaceOnUse">
<stop stop-color="#00E083"/>
<stop offset="1" stop-color="#002024"/>
</linearGradient>
<linearGradient id="paint10_linear_2517_935" x1="839.2" y1="71.5" x2="839.2" y2="12.5" gradientUnits="userSpaceOnUse">
<stop stop-color="#00E083"/>
<stop offset="1" stop-color="#002024"/>
</linearGradient>
<linearGradient id="paint11_linear_2517_935" x1="839.2" y1="71.5" x2="839.2" y2="12.5" gradientUnits="userSpaceOnUse">
<stop stop-color="#00E083"/>
<stop offset="1" stop-color="#002024"/>
</linearGradient>
<linearGradient id="paint12_linear_2517_935" x1="839.2" y1="71.5" x2="839.2" y2="12.5" gradientUnits="userSpaceOnUse">
<stop stop-color="#00E083"/>
<stop offset="1" stop-color="#002024"/>
</linearGradient>
<linearGradient id="paint13_linear_2517_935" x1="839.2" y1="71.5" x2="839.2" y2="12.5" gradientUnits="userSpaceOnUse">
<stop stop-color="#00E083"/>
<stop offset="1" stop-color="#002024"/>
</linearGradient>
<linearGradient id="paint14_linear_2517_935" x1="839.2" y1="71.5" x2="839.2" y2="12.5" gradientUnits="userSpaceOnUse">
<stop stop-color="#00E083"/>
<stop offset="1" stop-color="#002024"/>
</linearGradient>
<linearGradient id="paint15_linear_2517_935" x1="490" y1="47.666" x2="490" y2="167.666" gradientUnits="userSpaceOnUse">
<stop stop-color="#002024"/>
<stop offset="1" stop-color="#03644D"/>
</linearGradient>
<linearGradient id="paint16_linear_2517_935" x1="489.505" y1="109.5" x2="489.068" y2="147.5" gradientUnits="userSpaceOnUse">
<stop stop-color="#03644D"/>
<stop offset="1" stop-color="white"/>
</linearGradient>
</defs>
</svg>
