<svg width="514" height="93" viewBox="0 0 514 93" fill="none" xmlns="http://www.w3.org/2000/svg">
<path d="M438.065 14.4576L426.898 31.4332C407.116 17.3396 381.272 21.8235 388.93 31.4332C390.503 33.4074 438.703 35.5962 438.703 65.3845C438.065 83.961 420.836 91.9683 403.926 91.9683C390.844 91.9683 371.063 90.3669 359.896 80.1181L371.063 62.1816C387.016 71.1492 414.135 76.9145 414.135 62.1816C414.135 55.4547 384.056 54.9387 369.148 42.9639C366.277 40.6573 356.705 31.433 367.553 13.817C379.501 -5.58606 418.283 -3.79976 438.065 14.4576Z" fill="#00E083"/>
<path d="M329.266 2.28554H352.876V91.3275H329.266V2.28554Z" fill="#00E083"/>
<path d="M445.403 2.28554H514V23.425H469.651V35.2759H510.171V56.7357H469.651V69.5475H514V91.3275H445.403V2.28554Z" fill="#00E083"/>
<path d="M239.93 53.853V2.28554H219.192V91.0072L265.774 61.5401L313.313 90.3667V2.28554H292.575V53.853L265.774 34.9556L239.93 53.853Z" fill="#00E083"/>
<path d="M0 38.1586H50.73V27.9091H0V6.76967H59.6636L70.8305 16.0582V48.7283L59.6636 59.9386H26.8007V90.687H0V38.1586Z" fill="#00E083"/>
<path d="M170.373 72.1098L151.549 57.056C142.296 72.1098 116.772 72.751 107.52 57.6971C102.401 49.3689 103.692 40.7209 107.52 34.3156C113.644 24.0656 137.193 17.0191 151.549 34.3156L169.736 20.2226C150.593 -7.00296 105.925 -4.44068 89.6525 18.6212C53.9206 72.1098 130.175 122.716 170.373 72.1098Z" fill="#00E083"/>
</svg>
