<svg width="219" height="294" viewBox="0 0 219 294" fill="none" xmlns="http://www.w3.org/2000/svg">
<g opacity="0.99" filter="url(#filter0_d_897_824)">
<path d="M132.937 205.021L107.045 226.206L98.8071 196.194L132.937 205.021Z" fill="#00D8A5" stroke="#005E42"/>
<path d="M134.32 203.878L98.978 194.893L125.641 162.17L152.403 153.547L134.32 203.878Z" fill="#15C097" stroke="#005E42"/>
<path d="M105.244 225.974L81.3015 205.781L97.1667 196.263L105.244 225.974Z" fill="#00A07A" stroke="#005E42"/>
<path d="M80.0974 149.854L95.3699 190.862L66.24 149.854H80.0974Z" fill="#00B389" stroke="#005E42"/>
<path d="M67.087 153.146L96.7577 195.034L80.7576 204.633L67.087 153.146Z" fill="#009A76" stroke="#005E42"/>
<path d="M81.3273 149.15L103.272 124.201L124.433 161.688L97.953 193.887L81.3273 149.15Z" fill="#00EDB5" stroke="#005E42"/>
<path d="M104.189 123.242L111.685 68.6758L152.515 152.152L125.582 160.831L104.189 123.242Z" fill="#009B76" stroke="#005E42"/>
<path d="M109.927 71.0888L102.577 123.124L80.529 148.235L66.4846 148.234L109.927 71.0888Z" fill="#008A69" stroke="#005E42"/>
<path d="M111.412 66.3623L65.2712 149.044M111.412 66.3623L103.361 123.032M111.412 66.3623L153.217 152.45M65.2712 149.044H80.7547M65.2712 149.044L97.7865 195.185M65.2712 149.044L80.445 205.404M80.7547 149.044L103.361 123.032M80.7547 149.044L97.7865 195.185M103.361 123.032L125.347 161.74M153.217 152.45L125.347 161.74M153.217 152.45L134.947 204.475M125.347 161.74L97.7865 195.185M97.7865 195.185L134.947 204.475M97.7865 195.185L106.457 227.7M97.7865 195.185L80.445 205.404M134.947 204.475L106.457 227.7M106.457 227.7L80.445 205.404" stroke="#005E42" stroke-width="2"/>
</g>
<defs>
<filter id="filter0_d_897_824" x="-4.57764e-05" y="-4.57764e-05" width="218.499" height="293.203" filterUnits="userSpaceOnUse" color-interpolation-filters="sRGB">
<feFlood flood-opacity="0" result="BackgroundImageFix"/>
<feColorMatrix in="SourceAlpha" type="matrix" values="0 0 0 0 0 0 0 0 0 0 0 0 0 0 0 0 0 0 127 0" result="hardAlpha"/>
<feOffset/>
<feGaussianBlur stdDeviation="32.1"/>
<feComposite in2="hardAlpha" operator="out"/>
<feColorMatrix type="matrix" values="0 0 0 0 0 0 0 0 0 0.878431 0 0 0 0 0.513726 0 0 0 1 0"/>
<feBlend mode="normal" in2="BackgroundImageFix" result="effect1_dropShadow_897_824"/>
<feBlend mode="normal" in="SourceGraphic" in2="effect1_dropShadow_897_824" result="shape"/>
</filter>
</defs>
</svg>
