<svg width="8" height="12" viewBox="0 0 8 12" fill="none" xmlns="http://www.w3.org/2000/svg">
<path d="M2.1072 6.97836L2.01426 6.97096C0.830873 6.86743 0.239179 6.81641 0.0509826 6.42965C-0.136439 6.04363 0.204328 5.57923 0.885086 4.64968L3.66001 0.864183C4.10998 0.250399 4.33535 -0.056493 4.52974 0.00858285C4.72336 0.0743982 4.69702 0.447845 4.64591 1.19548L4.48792 3.45021C4.4399 4.13055 4.41667 4.47072 4.62113 4.69996C4.82636 4.92921 5.18184 4.95953 5.89281 5.02164L5.98574 5.02904C7.16913 5.13257 7.76083 5.18359 7.94902 5.57035C8.13644 5.95637 7.79568 6.42078 7.11414 7.35033L4.33999 11.1358C3.89003 11.7496 3.66466 12.0565 3.47026 11.9914C3.27665 11.9256 3.30298 11.5522 3.35409 10.8045L3.51209 8.54979C3.5601 7.86945 3.58334 7.52928 3.37888 7.30004C3.17364 7.0708 2.81816 7.04048 2.1072 6.97836Z" fill="#FFB800"/>
</svg>
