<svg width="23" height="34" viewBox="0 0 23 34" fill="none" xmlns="http://www.w3.org/2000/svg">
<path d="M11.465 10.8358C14.5088 10.8916 17.5861 10.9972 20.5856 11.5518C20.9544 11.6199 21.0774 12.8654 21.1407 13.2129C21.3231 14.2274 21.4995 15.243 21.6703 16.2595C21.9749 17.9684 22.2704 19.679 22.5564 21.3911C23.3765 26.2207 23.4415 25.9458 19.3392 28.77L14.6225 31.9828C14.0847 32.3464 12.0314 33.7935 11.5685 34L4.642 29.405C3.39065 28.5592 1.45857 27.4009 0.473378 26.2431C-0.208274 25.4423 -0.00324454 24.1669 0.169871 23.1765C0.58836 20.7299 1.08722 18.2143 1.54278 15.7678L1.983 13.4169C2.07202 12.9165 2.15398 12.3016 2.2818 11.825C2.58142 11.4806 3.61001 11.4501 4.14917 11.3238C3.95765 12.1595 3.7885 13.3277 3.63308 14.2055L2.61041 20.109L2.19787 22.5264C2.09333 23.1212 1.82762 24.3878 1.89346 24.9118C1.99448 25.7159 4.15916 26.9582 4.82007 27.3953L9.52274 30.4748C9.95595 30.7598 11.1743 31.5233 11.4795 31.8377L11.4961 31.8549C11.3973 30.9171 11.4454 28.9144 11.4457 27.8945L11.4466 14.0738C11.4456 13.2125 11.3844 11.6086 11.465 10.8358ZM15.8938 16.2756C15.8129 16.614 15.761 16.6699 15.3888 16.7145L15.3983 16.7326C15.4336 16.8014 15.4387 16.8054 15.4418 16.8803C15.6538 16.9695 15.8114 16.7175 16.015 16.938L16.0205 17.2233C16.2364 17.4273 16.4513 17.1258 16.5656 17.2252C16.5161 17.4168 16.456 17.5146 16.2548 17.6183C15.5185 17.9976 15.4271 17.7993 14.8906 18.5188L14.664 18.5179C14.3707 18.213 14.2378 17.9998 14.0573 17.6199C14.078 17.4318 14.1362 17.0746 14.0845 16.9112L13.9967 16.8737C13.6846 17.0548 13.7257 17.0805 13.4105 16.87L13.3461 16.9181C13.3601 17.0136 13.377 17.1087 13.3969 17.2033C13.2108 17.3794 13.1317 17.2237 12.9885 17.3985C13.0223 17.6396 13.3297 17.9171 13.3487 18.1678C13.3601 18.3193 13.1156 18.6565 13.2237 18.7582C13.5102 18.7261 13.5897 18.438 13.7622 18.5706C13.9399 18.7072 14.1366 19.0182 14.2845 19.1564L14.3621 19.2339C14.2012 19.3676 14.0389 19.4994 13.8753 19.6296C14.096 19.8305 14.2808 19.9975 14.5177 20.178C14.4077 20.3016 13.9046 20.9353 13.7196 20.9276C13.5145 20.9192 13.3709 20.6471 13.1271 20.8523C13.0668 21.1006 13.1569 21.3372 13.0633 21.5873C13.0536 21.6133 13.0394 21.7057 13.0344 21.7364C13.1241 21.8312 13.2175 21.8151 13.2462 21.8579C13.3813 22.0614 13.1479 22.3068 13.4215 22.4035C13.6586 22.3532 13.773 22.2485 13.9939 22.1649C14.0947 22.1267 14.2717 22.2451 14.3199 22.1666C14.434 21.981 14.2529 21.355 14.5253 21.2523C14.749 21.1682 14.9355 21.4053 15.1288 21.1395C15.0665 20.8988 14.9392 20.6071 15.2189 20.4875C15.4671 20.5061 15.8637 20.6836 16.063 20.8366C16.0081 20.8915 15.9519 20.9452 15.8946 20.9978C15.5388 21.3808 15.3705 21.5548 14.8947 21.7618C15.4243 22.3652 15.3436 22.7075 15.7682 23.3071C15.4779 23.3026 15.2295 23.3179 14.9515 23.2235C14.6729 23.1288 14.4556 22.651 14.1761 22.6874C14.0988 22.8786 14.2029 22.9588 14.0637 23.1475L13.9235 23.2046C13.9159 23.2962 13.8962 23.3479 13.9703 23.4159C14.2112 23.6378 13.981 23.8323 14.1106 24.0234L14.3322 24.0474C14.4868 24.2653 14.2862 24.3668 14.4686 24.4364C14.768 24.3397 15.1002 24.0528 15.3095 24.0545C15.3607 24.0981 15.413 24.1401 15.4666 24.1809C15.7128 24.1362 16.6103 23.8785 16.8583 23.7947C16.4396 23.3589 15.5332 22.2286 16.6627 22.0796L16.721 22.1164C16.8209 22.6027 16.8907 23.456 17.1153 23.957C17.2822 23.995 17.3539 23.9146 17.5526 23.8399L17.5956 23.9015C17.5822 24.1003 17.1579 24.6287 17.0055 24.7717C16.5219 25.2255 16.2301 24.448 15.6674 24.9756L15.6662 25.0579C15.7688 25.1561 15.7935 25.1754 15.8579 25.302C15.8136 25.454 15.7677 25.5644 15.7068 25.7108L15.7368 25.7713C16.2431 25.6966 16.2025 26.0887 16.6668 26.1644C17.2751 26.043 18.7871 23.5596 18.4291 23.1922L18.3435 23.2295C17.9283 23.4094 17.9086 23.1646 17.7631 22.7948C17.8248 22.2838 17.913 22.1183 18.155 21.6571C18.4192 21.9849 18.6155 22.3115 19.0435 22.4327C19.6578 22.6065 19.8513 22.1712 19.9866 21.7059C19.8852 21.4134 19.7134 21.064 19.5815 20.7773C19.6395 20.6015 19.8437 20.2328 19.8027 20.0987C19.7093 20.1602 19.6805 20.1741 19.5787 20.2173L19.5337 20.1746C19.5164 19.979 19.6044 19.9231 19.6734 19.7114L19.6347 19.6631L19.4337 19.7493L19.363 19.7157C19.3608 19.5668 19.596 19.1918 19.6835 19.0242C19.3442 19.2806 19.2506 19.4061 18.9765 19.7338C18.9508 19.6369 18.8861 19.3833 18.8876 19.2855C18.9047 18.0988 19.0541 16.5315 19.8126 15.5911C19.4321 15.8136 19.302 15.8613 19.0895 16.2464C18.8243 15.682 18.7242 15.6147 18.1914 15.3224C19.141 16.7252 18.1836 18.0037 18.4398 19.5716C18.5441 20.2091 20.1317 21.8664 19.2521 21.9702C18.7722 21.8048 18.3913 20.7745 18.0915 20.4378C17.8479 20.1644 17.4301 19.7862 17.1583 19.5331C17.6842 18.7074 17.8667 18.231 17.9832 17.2528C18.2125 15.3274 17.4164 15.4105 15.9074 15.4302C15.8566 15.7062 15.761 16.0285 15.8938 16.2756ZM17.6075 14.3684C17.1979 14.2108 17.0682 14.1914 16.7647 13.8776C16.3164 14.3446 15.6065 14.316 15.5248 14.7868C15.7355 15.2911 17.2098 15.4215 17.5705 15.1651C17.6518 15.0092 18.0379 14.9584 17.9746 14.6209C17.8568 14.4677 17.7804 14.4446 17.6075 14.3684Z" fill="white"/>
<path d="M16.7647 13.8776C17.0682 14.1914 17.1979 14.2108 17.6075 14.3684C17.4925 14.6846 17.3686 14.8713 17.5705 15.1651C17.2098 15.4215 15.7355 15.2911 15.5248 14.7868C15.6065 14.316 16.3164 14.3446 16.7647 13.8776Z" fill="white" fill-opacity="0.0235294"/>
<path d="M15.8938 16.2756C16.1127 16.2197 16.3801 16.2218 16.4524 16.4929C16.4353 16.6398 16.4219 16.6553 16.3248 16.7679C16.2133 16.8124 16.103 16.8526 16.015 16.938C15.8114 16.7175 15.6538 16.9695 15.4418 16.8803C15.4387 16.8054 15.4336 16.8014 15.3983 16.7326L15.3888 16.7145C15.761 16.6699 15.8129 16.614 15.8938 16.2756Z" fill="white" fill-opacity="0.964706"/>
<path d="M16.063 20.8366C16.5477 21.2033 16.8185 21.4706 16.721 22.1164L16.6627 22.0796C16.5559 21.7031 16.2578 21.1674 15.8946 20.9978C15.9519 20.9452 16.0081 20.8915 16.063 20.8366Z" fill="white" fill-opacity="0.972549"/>
<path d="M14.664 18.5179L14.8906 18.5188C14.7386 18.7498 14.5581 19.0489 14.3621 19.2339L14.2845 19.1564C14.3415 19.0087 14.5687 18.6668 14.664 18.5179Z" fill="white" fill-opacity="0.964706"/>
<path d="M11.0699 0.0125806L11.0924 0.0108093C11.8144 -0.0436736 11.983 0.103023 12.5126 0.559962L12.6848 1.13614C12.5694 1.59331 12.505 1.67326 12.213 2.04295C12.6987 2.05139 13.1812 2.12321 13.6485 2.25657C14.428 2.47094 15.0763 2.85951 15.8097 3.11234C16.5786 3.34484 17.2896 3.43308 18.0184 3.81948C19.0336 4.3578 19.6542 5.63999 19.064 6.71407C18.5735 7.60667 17.8868 7.99591 16.9279 8.26765C17.3563 8.33161 17.5563 8.39378 17.9549 8.55953C18.1114 9.02046 18.1816 9.68067 18.3031 10.2024C17.0663 9.80191 12.9399 9.70143 11.5417 9.68451C9.59343 9.6759 6.41402 9.86965 4.51542 10.207C4.60232 9.78908 4.66585 9.37334 4.74334 8.95599C4.856 8.34933 5.47495 8.33911 5.97461 8.2767C4.83534 7.99624 3.73613 7.27846 3.59236 6.01415C3.52978 5.46668 3.68907 4.91694 4.03433 4.48885C4.87609 3.43909 6.17103 3.38275 7.34571 3.04695C7.47011 3.01138 7.97096 2.69263 8.16472 2.60804C8.9874 2.24886 9.73681 2.08704 10.6143 1.98843C10.27 1.58674 10.2373 1.50731 10.166 0.992085C10.3491 0.534974 10.6243 0.220083 11.0699 0.0125806ZM9.06357 7.3258C9.6548 7.70415 10.1805 7.79718 10.8549 7.95351C10.1299 6.57095 10.132 5.02319 10.5184 3.51712C10.5653 3.33463 10.7338 3.0988 10.6857 3.00519L10.621 3.00882C9.68334 3.17612 8.80941 3.52058 8.23535 4.32567C7.51617 5.3343 7.83047 6.47586 8.82013 7.16557C8.90001 7.22088 8.98119 7.27431 9.06357 7.3258ZM12.0255 7.94462C12.8628 7.76728 13.1626 7.70125 13.8995 7.23793C14.9295 6.40487 15.4805 5.3895 14.5367 4.20701C13.9092 3.42076 13.045 3.18352 12.1122 2.96036C12.7331 4.76177 12.8256 6.15981 12.0255 7.94462ZM14.6022 7.84671C15.1167 7.83818 15.6316 7.83947 16.1367 7.72832C16.7991 7.60035 17.3641 7.35758 17.7604 6.7742C18.0061 6.41783 18.0973 5.97656 18.0135 5.55128C17.9255 5.09366 17.6581 4.69089 17.2712 4.43379C16.9902 4.24408 16.4817 4.05656 16.1471 4.04936C17.2816 5.78951 16.3227 7.13224 14.6022 7.84671ZM7.0522 7.77842C7.3834 7.81013 7.87142 7.87093 8.19168 7.86169C7.39899 7.45515 6.6013 6.98302 6.30192 6.0832C6.08627 5.43504 6.26578 4.64086 6.65003 4.0944L6.63566 4.05866L6.51789 4.08063C5.99036 4.15595 5.47138 4.42148 5.14845 4.85501C4.87842 5.22218 4.76267 5.68127 4.82617 6.1334C4.97261 7.15973 6.09739 7.78462 7.0522 7.77842Z" fill="white"/>
<path d="M6.12102 16.5676C6.85322 16.5938 7.75936 16.4721 8.48138 16.5567C8.67971 16.8847 9.23726 22.1796 9.36476 23.0172C9.22799 23.0899 5.68324 23.0232 5.30868 23.0075C5.31791 22.7396 5.51088 21.4667 5.55977 21.0933C5.7557 19.5973 5.90892 18.0557 6.12102 16.5676ZM7.91125 21.3187C7.89476 21.2168 7.90358 21.1281 7.83571 21.0812C7.62089 20.9327 7.03532 20.9789 6.77126 20.9927C6.78222 21.2048 6.7465 21.1693 6.8657 21.289C7.18958 21.3947 7.55798 21.315 7.91125 21.3187ZM7.81338 18.7451L7.9003 18.6374C7.8402 18.3685 7.13101 18.4313 6.90031 18.4304C6.78941 18.5669 6.7933 18.5196 6.79477 18.6671C6.95093 18.828 7.57718 18.7558 7.81338 18.7451Z" fill="white"/>
<path d="M9.45389 23.2693C9.65901 23.2889 9.65064 23.2553 9.78589 23.3654C9.9224 23.6306 9.86207 24.5995 9.88223 25.0269C9.70868 25.014 9.18476 24.9777 9.0378 24.9373C8.31235 24.7373 8.11588 24.5761 7.35067 24.5675C6.40662 24.5568 6.0079 25.0074 5.14128 25.0212C5.02047 25.0231 4.95904 24.9745 4.89335 24.8931C4.81909 24.5477 4.84895 23.7079 4.92627 23.349C5.05326 23.2614 5.04674 23.2904 5.2289 23.2869C6.54111 23.2906 8.15842 23.3333 9.45389 23.2693Z" fill="white"/>
<path d="M8.48115 14.6962C8.68076 14.6611 8.92044 14.612 9.11749 14.5852C9.13386 15.1627 9.14303 15.7404 9.14501 16.3182L8.38297 16.3199C8.19921 16.3058 8.06348 16.3093 7.88145 16.3143C7.39316 16.2761 6.1122 16.2907 5.61745 16.3536C5.5892 15.942 5.50541 15.0979 5.60201 14.7213C5.75441 14.5466 6.09869 14.6807 6.32657 14.7096C6.336 14.9025 6.32476 15.0886 6.43321 15.2461L6.52028 15.3044C6.99129 15.1887 6.98289 14.3983 7.52786 14.7073C7.83282 14.8802 7.96573 15.5926 8.33029 14.9708C8.38252 14.8804 8.43284 14.7888 8.48115 14.6962Z" fill="white"/>
<path d="M9.36476 23.0172C9.38936 23.1088 9.40421 23.1891 9.45389 23.2693C8.15842 23.3333 6.54111 23.2906 5.2289 23.2869C5.29059 23.1659 5.29197 23.1421 5.30868 23.0075C5.68324 23.0232 9.22799 23.0899 9.36476 23.0172Z" fill="white"/>
<path d="M7.88145 16.3143C8.06348 16.3093 8.19921 16.3058 8.38297 16.3199L8.48138 16.5567C7.75936 16.4721 6.85322 16.5938 6.12102 16.5676C6.29738 16.306 7.49478 16.4545 7.88694 16.3833L7.88145 16.3143Z" fill="white"/>
</svg>
