<svg width="34" height="34" viewBox="0 0 34 34" fill="none" xmlns="http://www.w3.org/2000/svg">
<path d="M4.09735 0.00704027C4.74344 -0.00758745 5.44359 0.00511972 6.09339 0.00510218L29.0384 0.00447078C29.3677 0.0045234 29.7297 -0.00952551 30.0543 0.0230624C31.7149 0.189747 33.1403 1.24984 33.7191 2.82809C34.083 3.82033 33.9892 4.90002 33.989 5.95045L33.9903 12.0687C33.9903 12.4029 34.0079 13.1246 33.9618 13.4218C33.8997 13.8382 33.7192 14.2279 33.4416 14.5444C32.736 15.3413 31.9856 15.2729 31.024 15.2714L27.4963 15.2702C27.1567 15.2703 26.8157 15.2743 26.4767 15.2693C25.9133 15.2612 26.3318 14.9244 26.4607 14.7318C26.8134 14.2046 26.7956 13.5116 26.7961 12.9022L26.7959 10.4461C26.7957 10.0833 26.8136 9.68073 26.7378 9.32836C26.6453 8.88778 26.4429 8.47762 26.1495 8.13605C25.683 7.59101 25.017 7.25626 24.3012 7.20702C24.0243 7.18717 23.6194 7.19922 23.3326 7.19948L8.87962 7.19937C8.47194 7.19931 7.82551 7.11723 7.51043 7.40013C7.35093 7.54333 7.24471 7.74608 7.24047 7.9632C7.23283 8.35511 7.23563 8.74869 7.23586 9.1414L7.23577 25.1128C7.23546 25.4301 7.23068 25.7546 7.24296 26.0709C7.2496 26.2422 7.34162 26.4159 7.45431 26.5394C7.54374 26.6373 7.7662 26.7739 7.90113 26.7831C8.25276 26.8067 8.6364 26.7971 8.99092 26.797L23.5997 26.7974C23.8186 26.7974 24.106 26.805 24.32 26.7876C24.537 26.7687 24.751 26.725 24.958 26.6574C25.6311 26.4343 26.1884 25.9539 26.5084 25.3213C26.6477 25.0419 26.7384 24.7409 26.7765 24.431C26.8051 24.1956 26.7967 23.9377 26.796 23.6984L26.7954 22.7486L26.7963 21.3085C26.7968 20.6611 26.8589 19.892 26.5286 19.3115C26.4812 19.2282 25.9147 18.7864 26.3501 18.7325C26.5865 18.7031 26.899 18.7216 27.139 18.7216L30.8894 18.7212C31.2542 18.7211 31.8422 18.7001 32.1782 18.7533C32.5327 18.8095 32.8673 18.9542 33.1511 19.174C33.61 19.5339 33.9057 20.0626 33.9722 20.6419C34.0083 20.9457 33.9899 21.6646 33.9896 21.9963L33.9893 28.0887C33.9893 28.8107 34.0317 29.7915 33.9068 30.4739C33.7805 31.1663 33.4836 31.8162 33.0429 32.365C32.2947 33.306 31.2008 33.8648 30.0162 33.9745C29.6056 34.0125 28.952 33.9936 28.5252 33.9935L5.38604 33.9934C5.21107 33.9934 5.02106 33.9873 4.84981 33.9942C3.6476 34.0431 2.54428 33.7875 1.58662 33.009C0.700213 32.2885 0.111673 31.1892 0.0240246 30.0361C-0.015971 29.5101 0.00595645 28.926 0.00634238 28.3889L0.0065353 5.31829C0.00604412 4.99911 0.00294802 4.67919 0.00572841 4.36008C0.0265594 1.97393 1.74664 0.20804 4.09735 0.00704027Z" fill="white"/>
<path d="M21.9005 18.7261C22.1787 18.7675 22.3441 18.8041 22.595 18.9415C23.0091 19.1668 23.3158 19.5487 23.4464 20.0016C23.5433 20.3495 23.5504 21.6975 23.4877 22.0629C23.452 22.2648 23.3824 22.4591 23.2816 22.6377C23.0459 23.0498 22.6551 23.3504 22.1963 23.4724C21.8476 23.5653 20.792 23.5324 20.3739 23.5323L13.2606 23.5314C12.5889 23.5311 11.9108 23.5356 11.2389 23.5316C11.0984 23.5307 10.9582 23.4981 10.8368 23.4242C10.6645 23.3198 10.5417 23.1501 10.4964 22.9538C10.4622 22.7995 10.4751 21.9728 10.4754 21.7633L10.4752 12.1877C10.4749 11.8598 10.4746 11.5385 10.4801 11.2063C10.4858 10.8482 10.7248 10.5389 11.0867 10.4764C11.2439 10.4493 11.4589 10.4603 11.6229 10.4606L12.4774 10.4627L21.1609 10.4614C21.3718 10.4613 21.7254 10.4518 21.9259 10.4726C22.236 10.5053 22.5321 10.6188 22.7845 10.802C23.1658 11.0776 23.4206 11.4945 23.492 11.9594C23.5294 12.1972 23.5179 12.5505 23.5162 12.7984C23.5117 13.4632 23.5926 13.9957 23.1625 14.5612C22.8427 14.9815 22.4492 15.1873 21.9355 15.2635C21.2128 15.3119 15.5066 15.213 15.3069 15.3053C15.2757 15.4458 15.2747 18.5479 15.305 18.6842C15.4332 18.7377 16.4964 18.7172 16.7293 18.7172L20.1433 18.7169C20.6186 18.7169 21.4524 18.6925 21.9005 18.7261Z" fill="white"/>
</svg>
