<svg width="370" height="325" viewBox="0 0 370 325" fill="none" xmlns="http://www.w3.org/2000/svg">
<g filter="url(#filter0_f_1127_689)">
<path d="M270 100C270 149.153 231.944 189 185 189C138.056 189 100 149.153 100 100L185 100L270 100Z" fill="#00E083" fill-opacity="0.6"/>
</g>
<path d="M265.448 175.897L109.378 162.942C106.37 162.693 104.016 160.247 103.881 157.232L99.3215 55.74C99.1539 52.0085 102.4 49.0324 106.103 49.5227L252.502 68.9051C255.153 69.2561 257.252 71.3198 257.648 73.9649L271.878 169.029C272.451 172.856 269.305 176.217 265.448 175.897Z" fill="url(#paint0_linear_1127_689)"/>
<path d="M262.139 172.404L113.559 160.185C110.55 159.938 108.194 157.493 108.057 154.477L103.73 59.0379C103.56 55.3083 106.802 52.3315 110.504 52.8171L249.908 71.1023C252.56 71.4501 254.661 73.5107 255.06 76.155L268.564 165.528C269.142 169.355 265.997 172.721 262.139 172.404Z" stroke="url(#paint1_linear_1127_689)" stroke-width="0.5"/>
<circle cx="238.277" cy="102.443" r="10.2061" transform="rotate(86.19 238.277 102.443)" fill="#D9D9D9"/>
<circle cx="237.358" cy="88.6347" r="10.2061" transform="rotate(86.19 237.358 88.6347)" fill="#034C3B"/>
<path d="M161.97 71.9456L163.082 118.004" stroke="#034C3B" stroke-width="10" stroke-linecap="round"/>
<path d="M194.01 134.547C194.01 133.412 194.953 132.504 196.087 132.548L232.139 133.95C233.212 133.992 234.061 134.874 234.061 135.949V149.734C234.061 150.874 233.11 151.783 231.972 151.733L195.921 150.13C194.852 150.083 194.01 149.202 194.01 148.132V134.547Z" fill="#034C3B"/>
<path d="M116.577 79.5132V78.9439C116.577 77.7199 117.666 76.7869 118.873 76.9889C125.504 78.0986 132.022 79.2868 132.82 73.5029C139.307 84.8552 126.032 82.1709 118.572 81.6037C117.47 81.52 116.577 80.6177 116.577 79.5132Z" fill="#03644D"/>
<path d="M118.654 70.5546C124.174 70.4741 130.851 70.9424 132.82 73.5029C131.592 66.3411 127.354 66.8945 118.893 65.8184C117.676 65.6636 116.577 66.6007 116.577 67.8278V68.5319C116.577 69.6666 117.519 70.5712 118.654 70.5546Z" fill="#03644D"/>
<path d="M134.555 86.511V87.0803C134.555 88.3042 133.466 89.2373 132.259 89.0352C125.628 87.9256 119.109 86.7374 118.312 92.5212C111.825 81.169 125.1 83.8532 132.56 84.4204C133.661 84.5042 134.555 85.4064 134.555 86.511Z" fill="#D9D9D9"/>
<path d="M132.478 95.4693C126.958 95.5498 120.281 95.0815 118.312 92.521C119.539 99.6828 123.778 99.1294 132.239 100.205C133.456 100.36 134.555 99.4232 134.555 98.1961V97.492C134.555 96.3573 133.613 95.4527 132.478 95.4693Z" fill="#D9D9D9"/>
<path d="M192.487 104.582C196.841 100.599 202.799 98.6189 210.767 99.8572C213.239 100.241 214.952 101.5 216.223 103.419C217.522 105.38 218.361 108.037 218.979 111.17C219.595 114.297 219.973 117.785 220.41 121.386C220.842 124.945 221.333 128.6 222.176 131.989C225.311 150.793 228.251 158.904 241.389 186.961C252.137 209.914 259.613 226.898 260.781 246.828C261.942 266.634 256.873 289.461 242.297 324H150.993C153.86 318.526 155.094 311.8 150.07 305.466L150.054 305.445L150.036 305.426L149.101 304.386C146.959 302.059 145.106 300.385 143.543 299.074C141.708 297.534 140.427 296.61 139.44 295.657C138.522 294.769 138.011 293.985 137.781 292.876C137.539 291.704 137.594 290.087 138.034 287.5L138.085 287.204L137.964 286.929L121.058 248.444C116.502 237.815 117.14 228.061 118.426 222.653C122.471 211.879 132.751 208.381 141.107 211.932L142.286 212.433L142.486 211.168C144.405 199.014 153.91 192.971 163.783 194.861L166.323 195.347L164.771 193.279C157.879 184.09 156.186 177.151 153.321 167.393L187.482 169.956L189.096 170.077L188.482 168.579C182.986 155.167 180.628 136.569 183.696 122.021C185.23 114.752 188.095 108.6 192.487 104.582Z" fill="#002024" stroke="#002024" stroke-width="2"/>
<path d="M175.764 205.004C173.762 199.442 172.068 198.049 166.728 195.601" stroke="#002024" stroke-width="2" stroke-linecap="round"/>
<path d="M199.795 192.989C194.678 184.756 192.721 180.265 189.655 171.124" stroke="#002024" stroke-width="2" stroke-linecap="round"/>
<path d="M137.492 287.109C140.116 288.946 142.751 290.163 145.28 290.466M161.523 265.749C162.413 268.641 162.902 274.426 162.413 276.651C161.632 280.2 159.946 283.363 157.651 285.774M145.28 290.466C150.054 291.037 154.446 289.139 157.651 285.774M145.28 290.466C124.809 270.644 163.525 259.518 157.651 285.774" stroke="#002024" stroke-width="2" stroke-linecap="round"/>
<path d="M200.317 323.899C186.076 307.656 188 293.117 192.45 277.542C197.123 261.187 188.893 247.133 177.32 240.161C165.472 233.022 166.264 217.457 176.11 210.567M245.407 290.669C250.749 268.419 235.619 225.305 200.46 210.122C200.088 209.961 199.718 209.807 199.351 209.661M199.351 209.661C189.349 205.661 181.415 206.855 176.11 210.567M199.351 209.661C200.46 240.828 174.653 231.928 176.11 210.567" stroke="#002024" stroke-width="2" stroke-linecap="round"/>
<path d="M142.5 212.12C141.736 216.941 157.297 255.291 162.193 266.861C164.081 270.436 167.176 272.13 170.647 272.568M190.228 253.956C190.896 257.071 191.697 260.186 190.451 263.301C189.74 265.078 187.846 266.997 185.332 268.634M170.647 272.568C175.577 273.191 181.266 271.282 185.332 268.634M170.647 272.568C153.069 251.953 191.785 243.275 185.332 268.634" stroke="#002024" stroke-width="2" stroke-linecap="round"/>
<defs>
<filter id="filter0_f_1127_689" x="0" y="0" width="370" height="289" filterUnits="userSpaceOnUse" color-interpolation-filters="sRGB">
<feFlood flood-opacity="0" result="BackgroundImageFix"/>
<feBlend mode="normal" in="SourceGraphic" in2="BackgroundImageFix" result="shape"/>
<feGaussianBlur stdDeviation="50" result="effect1_foregroundBlur_1127_689"/>
</filter>
<linearGradient id="paint0_linear_1127_689" x1="186" y1="48.5823" x2="186" y2="176.523" gradientUnits="userSpaceOnUse">
<stop stop-color="#28A285"/>
<stop offset="1" stop-color="#0F3C31"/>
</linearGradient>
<linearGradient id="paint1_linear_1127_689" x1="186.551" y1="51.886" x2="186.551" y2="173.025" gradientUnits="userSpaceOnUse">
<stop stop-color="#06CA9C"/>
<stop offset="1" stop-color="#03644D"/>
</linearGradient>
</defs>
</svg>
