<svg width="34" height="34" viewBox="0 0 34 34" fill="none" xmlns="http://www.w3.org/2000/svg">
<path d="M24.7917 22.6667C26.132 20.7477 26.0176 19.3343 26.0163 16.9936C26.0151 14.6529 26.1341 13.2509 24.7917 11.3334M22.6728 8.92928C21.0765 7.33292 19.0427 6.24577 16.8286 5.80531C14.6145 5.36484 12.3194 5.59084 10.2337 6.45473C8.14806 7.31861 6.36539 8.78158 5.11116 10.6586C3.85694 12.5357 3.1875 14.7425 3.1875 17C3.1875 19.2575 3.85694 21.4644 5.11116 23.3414C6.36539 25.2185 8.14806 26.6814 10.2337 27.5453C12.3194 28.4092 14.6145 28.6352 16.8286 28.1947C19.0427 27.7543 21.0765 26.6671 22.6728 25.0708" stroke="white" stroke-width="3" stroke-linecap="round" stroke-linejoin="round"/>
<path d="M18.7428 11.9872C17.6034 11.0459 16.1774 10.5208 14.6996 10.4984C13.2219 10.476 11.7806 10.9577 10.6132 11.8641C9.44587 12.7705 8.62212 14.0475 8.27769 15.4847C7.93326 16.922 8.0887 18.4336 8.7184 19.7707C9.34811 21.1078 10.4145 22.1904 11.7419 22.8403C13.0692 23.4902 14.5784 23.6685 16.0207 23.3458C17.4629 23.0232 18.7523 22.2188 19.6762 21.0653C20.6002 19.9119 21.1037 18.478 21.1036 17.0001H15.3902M27.8909 26.2856C29.794 23.5598 30.8136 20.3151 30.8117 16.9906C30.8098 13.6662 29.7865 10.4226 27.8803 7.69897" stroke="white" stroke-width="3" stroke-linecap="round" stroke-linejoin="round"/>
</svg>
