<svg width="46" height="34" viewBox="0 0 46 34" fill="none" xmlns="http://www.w3.org/2000/svg">
<path d="M22.6667 0C10.1477 0 0 10.1477 0 22.6667C0.0174793 26.6507 1.08476 30.5598 3.09429 34H13.2397C11.5742 32.6174 10.2332 30.8855 9.31156 28.927C8.38994 26.9685 7.91029 24.8312 7.9066 22.6667C7.9066 14.5148 14.5148 7.9066 22.6667 7.9066C30.8185 7.9066 37.4267 14.5148 37.4267 22.6667C37.423 24.8312 36.9434 26.9685 36.0218 28.927C35.1002 30.8855 33.7591 32.6174 32.0937 34H42.239C44.2486 30.5598 45.3159 26.6507 45.3333 22.6667C45.3333 10.1477 35.1856 0 22.6667 0Z" fill="white"/>
<path d="M11.7988 25.8291C12.6107 28.6337 14.4737 31.0167 16.9994 32.4815C18.7223 33.4762 20.6766 33.9999 22.666 33.9999C24.6555 33.9999 26.6098 33.4762 28.3327 32.4815C30.8588 31.0169 32.7222 28.6339 33.5344 25.8291H11.7988Z" fill="white"/>
</svg>
