<svg width="79" height="34" viewBox="0 0 79 34" fill="none" xmlns="http://www.w3.org/2000/svg">
<path d="M0 16.9061L14.4615 4.53408C15.9825 3.23111 17.7529 1.62012 19.3312 0.367375C19.715 0.0627427 21.6312 0.0244216 22.2277 0.0230739L45.5942 0.100242C49.583 0.0960817 55.5041 -0.109173 59.2727 0.0799105C61.417 1.51957 63.0268 3.29639 64.9729 4.91359C69.4846 8.66298 74.3236 13.3756 79 16.8875C77.8513 18.2065 76.1221 19.5606 74.7333 20.7401L68.2975 26.2046C65.3894 28.6749 62.5445 31.2689 59.5232 33.6361C59.1396 33.9367 58.157 33.9795 57.6327 33.9947C56.9595 33.9092 54.4838 33.9414 53.6878 33.9385L45.4707 33.9162H29.8511C27.2338 33.9238 23.895 33.8664 21.3427 34C19.8269 33.9461 19.6336 33.8447 18.5385 32.8826C12.5925 27.6572 6.5125 22.5436 0.480952 17.3908C0.308787 17.2438 0.152129 17.0686 0 16.9061ZM29.7677 24.9917C32.3003 22.8272 36.7868 18.7162 39.348 16.9046C38.0787 15.9907 36.9668 14.9769 35.7876 13.9816C30.6896 9.67842 25.7587 5.23475 20.4405 1.12705C19.4045 2.91869 20.6419 28.3287 20.1195 32.6101L20.3259 32.8615C21.1166 32.3471 22.7455 30.8963 23.5403 30.2318C25.6288 28.4956 27.7046 26.7489 29.7677 24.9917ZM39.743 16.9877C42.4988 18.8996 46.9439 22.9321 49.5418 25.171C51.9716 27.2283 56.7633 31.0041 58.7807 33.0185C58.546 29.1003 58.7004 24.9343 58.7004 20.9944C58.7539 14.9545 58.6743 8.91412 58.4616 2.87662C58.4445 2.20507 58.8047 1.87172 58.5103 1.42477C52.817 5.66869 47.497 10.7495 42.0212 15.2168C41.2753 15.8254 40.5411 16.4279 39.743 16.9877Z" fill="white"/>
</svg>
