<svg width="52" height="34" viewBox="0 0 52 34" fill="none" xmlns="http://www.w3.org/2000/svg">
<path fill-rule="evenodd" clip-rule="evenodd" d="M26 31.3271C23.4455 32.9681 20.4992 33.888 17.4697 33.9904C14.4403 34.0928 11.4392 33.3739 8.78093 31.9091C6.12261 30.4442 3.90486 28.2873 2.35999 25.6643C0.815127 23.0413 0 20.0487 0 17C0 13.9513 0.815127 10.9587 2.35999 8.33568C3.90486 5.71266 6.12261 3.55576 8.78093 2.09092C11.4392 0.626075 14.4403 -0.0928016 17.4697 0.00959311C20.4992 0.111988 23.4455 1.03188 26 2.67292C28.5545 1.03188 31.5009 0.111988 34.5303 0.00959311C37.5597 -0.0928016 40.5608 0.626075 43.2191 2.09092C45.8774 3.55576 48.0951 5.71266 49.64 8.33568C51.1849 10.9587 52 13.9513 52 17C52 20.0487 51.1849 23.0413 49.64 25.6643C48.0951 28.2873 45.8774 30.4442 43.2191 31.9091C40.5608 33.3739 37.5597 34.0928 34.5303 33.9904C31.5009 33.888 28.5545 32.9681 26 31.3271ZM5.19748 17C5.19686 15.0141 5.69586 13.0603 6.64804 11.3206C7.60021 9.58091 8.97458 8.11182 10.6432 7.05014C12.3118 5.98846 14.2204 5.36871 16.1912 5.24861C18.1621 5.1285 20.1311 5.51194 21.9149 6.36323C19.5038 9.37736 18.1924 13.1314 18.1991 17C18.1991 21.0277 19.5902 24.7232 21.9149 27.6368C20.1311 28.4881 18.1621 28.8715 16.1912 28.7514C14.2204 28.6313 12.3118 28.0115 10.6432 26.9499C8.97458 25.8882 7.60021 24.4191 6.64804 22.6794C5.69586 20.9397 5.19686 18.9859 5.19748 17ZM30.0851 6.36323C31.8686 5.51314 33.837 5.1306 35.807 5.25121C37.777 5.37181 39.6847 5.99165 41.3526 7.05304C43.0204 8.11444 44.3943 9.5829 45.3463 11.3218C46.2983 13.0607 46.7975 15.0136 46.7975 16.9987C46.7975 18.9838 46.2983 20.9367 45.3463 22.6756C44.3943 24.4145 43.0204 25.8829 41.3526 26.9443C39.6847 28.0057 37.777 28.6256 35.807 28.7462C33.837 28.8668 31.8686 28.4842 30.0851 27.6342C32.4956 24.6207 33.807 20.8677 33.8009 17C33.8009 12.9723 32.4098 9.27677 30.0851 6.36323ZM26 9.60108C27.6252 11.6228 28.6003 14.1963 28.6003 17C28.6049 19.6936 27.6866 22.3066 26 24.3989C24.3134 22.3066 23.3951 19.6936 23.3997 17C23.3997 14.1963 24.3748 11.6228 26 9.60108Z" fill="white"/>
</svg>
