<svg width="35" height="35" viewBox="0 0 35 35" fill="none" xmlns="http://www.w3.org/2000/svg">
<path d="M34.3385 16.4961L19.1816 27.3599C18.2189 27.9155 16.4327 27.9064 15.5231 27.3599L0.412109 16.4979V34.5H34.3385V16.4961Z" fill="white"/>
<path d="M0.504126 12.5906H34.2471M1.15331 11.4637L15.8031 0.967634C16.6742 0.344122 18.0771 0.344122 18.9481 0.967634L33.5979 11.4637C34.469 12.0881 34.469 13.0931 33.5979 13.7175L18.9481 24.2136C18.0771 24.838 16.6742 24.838 15.8031 24.2136L1.15331 13.7175C0.282229 13.094 0.282229 12.0881 1.15331 11.4637Z" stroke="white" stroke-linecap="round" stroke-linejoin="round"/>
<path d="M17.3744 24.5968V0.573242M17.3744 24.5968L8.83594 12.5905L17.3744 0.573242M17.3744 24.5968L25.9119 12.5905L17.3744 0.573242" stroke="white" stroke-linecap="round" stroke-linejoin="round"/>
</svg>
