<svg width="105" height="34" viewBox="0 0 105 34" fill="none" xmlns="http://www.w3.org/2000/svg">
<path d="M97.2213 33.5093L96.2369 28.5802H85.2381L83.4881 33.4742L74.6725 33.4917C80.3396 19.8538 84.5454 9.75163 87.29 3.18531C88.0075 1.46778 89.2806 0.591497 91.1575 0.604641C92.5925 0.616325 94.9346 0.617783 98.1837 0.60902L105 33.4961L97.2213 33.5093ZM87.71 21.8284H94.8019L92.155 9.47268L87.71 21.8284ZM30.8962 0.600258L39.76 0.60902L26.0575 33.5137L17.0844 33.5049C14.828 24.8135 12.5996 16.1148 10.3994 7.40902C9.96187 5.67397 9.09562 4.46031 7.42875 3.88634C5.93833 3.37517 3.46208 2.58505 0 1.51598V0.60902H14.1619C16.6119 0.60902 18.0425 1.79639 18.5019 4.23248C18.9656 6.6744 20.1323 12.8873 22.0019 22.8711L30.8962 0.600258ZM51.94 0.60902L44.9356 33.5093L36.4963 33.4961L43.4875 0.600258L51.94 0.60902ZM69.0462 0C71.5706 0 74.7513 0.788659 76.58 1.51598L75.1012 8.33351C73.4475 7.66753 70.7262 6.76933 68.4381 6.8C65.1131 6.85696 63.0569 8.25464 63.0569 9.59536C63.0569 11.7773 66.6269 12.8771 70.3019 15.2606C74.4931 17.9771 75.0488 20.4175 74.9963 23.0727C74.9394 28.5714 70.3019 34 60.5194 34C56.0569 33.9343 54.4469 33.5619 50.8069 32.2649L52.3469 25.1495C56.0525 26.7005 57.6231 27.1956 60.7906 27.1956C63.6913 27.1956 66.1806 26.0214 66.2025 23.9753C66.22 22.5206 65.3275 21.7977 62.0725 20.0013C58.8175 18.2049 54.25 15.7119 54.3112 10.7039C54.3856 4.29819 60.445 0 69.0462 0Z" fill="white"/>
</svg>
