<svg width="13" height="14" viewBox="0 0 13 14" fill="none" xmlns="http://www.w3.org/2000/svg">
<path fill-rule="evenodd" clip-rule="evenodd" d="M8.14667 4.06132e-08C8.44983 7.62018e-05 8.74528 0.0925999 8.99117 0.264465C9.23706 0.436331 9.42092 0.678825 9.51672 0.9576L9.90889 2.1H12.2778C12.4693 2.1 12.653 2.17375 12.7885 2.30503C12.9239 2.4363 13 2.61435 13 2.8C13 2.98565 12.9239 3.1637 12.7885 3.29497C12.653 3.42625 12.4693 3.5 12.2778 3.5L12.2756 3.5497L11.6494 12.0498C11.6104 12.5794 11.3657 13.075 10.9648 13.4369C10.5639 13.7987 10.0364 13.9999 9.48856 14H3.51144C2.96361 13.9999 2.43613 13.7987 2.0352 13.4369C1.63426 13.075 1.38963 12.5794 1.35056 12.0498L0.724389 3.549L0.722222 3.5C0.530677 3.5 0.346977 3.42625 0.211534 3.29497C0.076091 3.1637 0 2.98565 0 2.8C0 2.61435 0.076091 2.4363 0.211534 2.30503C0.346977 2.17375 0.530677 2.1 0.722222 2.1H3.09111L3.48328 0.9576C3.57911 0.678712 3.76309 0.436136 4.00913 0.264261C4.25516 0.0923848 4.55077 -7.07429e-05 4.85406 4.06132e-08H8.14667ZM4.33333 5.6C4.15644 5.60002 3.9857 5.66297 3.85351 5.7769C3.72132 5.89083 3.63686 6.04782 3.61617 6.2181L3.61111 6.3V10.5C3.61132 10.6784 3.6818 10.85 3.80817 10.9798C3.93453 11.1095 4.10724 11.1876 4.29101 11.198C4.47477 11.2085 4.65572 11.1505 4.79688 11.036C4.93804 10.9215 5.02876 10.7591 5.0505 10.5819L5.05556 10.5V6.3C5.05556 6.11435 4.97946 5.9363 4.84402 5.80503C4.70858 5.67375 4.52488 5.6 4.33333 5.6ZM8.66667 5.6C8.47512 5.6 8.29142 5.67375 8.15598 5.80503C8.02054 5.9363 7.94444 6.11435 7.94444 6.3V10.5C7.94444 10.6857 8.02054 10.8637 8.15598 10.995C8.29142 11.1263 8.47512 11.2 8.66667 11.2C8.85821 11.2 9.04191 11.1263 9.17735 10.995C9.3128 10.8637 9.38889 10.6857 9.38889 10.5V6.3C9.38889 6.11435 9.3128 5.9363 9.17735 5.80503C9.04191 5.67375 8.85821 5.6 8.66667 5.6ZM8.14667 1.4H4.85333L4.61283 2.1H8.38717L8.14667 1.4Z" fill="#034C3B"/>
</svg>
