<svg width="14" height="14" viewBox="0 0 14 14" fill="none" xmlns="http://www.w3.org/2000/svg">
<path fill-rule="evenodd" clip-rule="evenodd" d="M0.499692 0C0.407914 5.65662e-05 0.317922 0.0253728 0.239576 0.0731751C0.16123 0.120977 0.0975526 0.189421 0.0555198 0.271008C0.0134871 0.352595 -0.00527892 0.444177 0.00127776 0.53572C0.00783444 0.627264 0.0394609 0.715236 0.092692 0.79L4.99969 7.66V13.5C4.99974 13.5904 5.02432 13.6792 5.07081 13.7568C5.1173 13.8343 5.18396 13.8979 5.26369 13.9405C5.34343 13.9832 5.43324 14.0035 5.52358 13.9992C5.61392 13.9948 5.7014 13.9661 5.77669 13.916L8.77669 11.916C8.84524 11.8704 8.90147 11.8085 8.94037 11.736C8.97927 11.6634 8.99965 11.5823 8.99969 11.5V7.66L13.9067 0.79C13.9599 0.715236 13.9915 0.627264 13.9981 0.53572C14.0047 0.444177 13.9859 0.352595 13.9439 0.271008C13.9018 0.189421 13.8382 0.120977 13.7598 0.0731751C13.6815 0.0253728 13.5915 5.65662e-05 13.4997 0L0.499692 0Z" fill="white"/>
</svg>
