<svg width="345" height="29" viewBox="0 0 345 29" fill="none" xmlns="http://www.w3.org/2000/svg">
<path d="M8.34393 22.9884C5.43193 22.9884 2.43593 22.1484 -7.22706e-05 20.8884L1.42793 16.2684C3.55593 17.5284 6.27193 18.3404 8.81993 18.3404C10.4999 18.3404 11.6759 17.8364 11.6759 16.7164C11.6759 15.6804 10.6119 15.3724 6.46793 14.5044C3.44393 13.8604 0.0839278 12.4604 0.0839278 8.20436C0.0839278 3.80836 4.00393 1.70836 8.59593 1.70836C11.1999 1.70836 14.1119 2.40836 16.1559 3.47236L14.4759 7.75636C12.6279 6.83236 10.2199 6.21636 8.25993 6.21636C6.52393 6.21636 5.59993 6.74836 5.59993 7.61636C5.59993 8.59636 6.69193 8.98836 9.77193 9.63236C13.1039 10.3044 17.1639 11.5924 17.1639 16.0164C17.1639 20.2724 13.5239 22.9884 8.34393 22.9884ZM26.9637 22.9884C22.9877 22.9884 20.8597 20.9724 20.9157 17.3324V11.5084H18.1997V7.30836H20.9157V2.91236H25.8717V7.30836H30.6037V11.5084H25.8717V16.9404C25.8717 18.1724 26.5717 18.6764 27.8037 18.6764C28.5317 18.6764 29.5117 18.5644 30.6597 18.1724V22.4284C29.4277 22.8204 28.0837 22.9884 26.9637 22.9884ZM38.0069 9.43636C39.3789 7.72836 41.4789 6.72036 43.9429 6.91636V11.9564C43.2709 11.7884 42.7389 11.7884 42.4309 11.7884C39.5749 11.7884 38.0069 13.3564 38.0069 15.7364V22.5684H33.0509V7.30836H38.0069V9.43636ZM60.9078 14.5884C60.9078 15.0924 60.8798 15.7644 60.7958 16.2964H50.4078C50.9398 18.3404 52.4798 18.9844 54.5798 18.9844C55.9518 18.9844 57.4638 18.7044 59.2838 18.0604L60.4038 21.5884C58.2758 22.5964 56.0918 22.9884 54.0478 22.9884C48.9238 22.9884 45.0878 20.0484 45.0878 14.9244C45.0878 10.1924 48.4478 6.88836 53.3198 6.88836C57.9118 6.88836 60.9078 9.94036 60.9078 14.5884ZM53.2638 10.6684C51.6958 10.6684 50.5758 11.6764 50.2958 13.5244H56.1758C56.0078 11.9004 55.1118 10.6684 53.2638 10.6684ZM69.1958 22.9884C65.2478 22.9884 62.5878 19.7404 62.5878 14.9244C62.5878 10.1364 65.2758 6.88836 69.2518 6.88836C71.1838 6.88836 73.2838 7.98036 74.2918 9.63236V7.30836H79.2478V22.5684H74.3478V20.1604C73.3398 21.8124 71.1558 22.9884 69.1958 22.9884ZM71.0438 18.6764C72.9758 18.6764 74.3198 17.1924 74.3198 14.9244C74.3198 12.6844 72.9758 11.2004 71.0438 11.2004C69.0838 11.2004 67.7678 12.6844 67.7678 14.9244C67.7678 17.1924 69.0838 18.6764 71.0438 18.6764ZM82.5704 22.5684V7.30836H87.5264V9.10036C88.6184 7.75636 90.2424 6.88836 92.2864 6.88836C94.6664 6.88836 96.4584 8.03636 97.3544 9.94036C98.4744 8.17636 100.294 6.88836 102.786 6.88836C106.23 6.88836 108.498 9.32436 108.498 13.0204V22.5684H103.542V14.0844C103.542 12.3204 102.478 11.2004 100.91 11.2004C99.2024 11.2004 98.0264 12.4324 98.0264 14.3924V22.5684H93.0424V14.1404C93.0424 12.3484 92.0344 11.2004 90.4104 11.2004C88.7024 11.2004 87.5264 12.4884 87.5264 14.3924V22.5684H82.5704ZM114.29 5.46036C112.806 5.46036 111.546 4.25636 111.574 2.71636C111.602 1.20436 112.806 0.000357866 114.29 0.000357866C115.858 0.000357866 117.006 1.20436 117.034 2.71636C117.062 4.25636 115.858 5.46036 114.29 5.46036ZM111.826 22.5684V7.30836H116.782V22.5684H111.826ZM120.223 22.5684V7.30836H125.095V9.26836C126.299 7.84036 128.147 6.88836 130.359 6.88836C133.859 6.88836 136.155 9.35236 136.155 13.1044V22.5684H131.199V14.1404C131.199 12.3484 130.051 11.2004 128.287 11.2004C126.439 11.2004 125.179 12.4884 125.179 14.3924V22.5684H120.223ZM146.359 28.5884C144.371 28.5884 142.159 28.2804 140.367 27.5524L141.123 23.4364C142.663 24.1084 144.287 24.4164 145.715 24.4164C148.543 24.4164 150.251 23.6884 150.251 21.3924V19.8804C149.243 21.5044 147.143 22.2324 145.183 22.2324C141.319 22.2324 138.603 19.2364 138.603 14.6724C138.603 10.0804 141.319 6.88836 145.183 6.88836C147.143 6.88836 149.327 8.00836 150.307 9.71636V7.30836H155.207V21.5324C155.207 26.2644 151.707 28.5884 146.359 28.5884ZM147.031 18.1164C148.907 18.1164 150.251 16.7164 150.251 14.6724C150.251 12.6284 148.907 11.2004 147.031 11.2004C145.127 11.2004 143.783 12.6284 143.783 14.6724C143.783 16.7164 145.127 18.1164 147.031 18.1164ZM171.489 22.9884C167.541 22.9884 164.881 19.7404 164.881 14.9244C164.881 10.1364 167.569 6.88836 171.545 6.88836C173.477 6.88836 175.577 7.98036 176.585 9.63236V7.30836H181.541V22.5684H176.641V20.1604C175.633 21.8124 173.449 22.9884 171.489 22.9884ZM173.337 18.6764C175.269 18.6764 176.613 17.1924 176.613 14.9244C176.613 12.6844 175.269 11.2004 173.337 11.2004C171.377 11.2004 170.061 12.6844 170.061 14.9244C170.061 17.1924 171.377 18.6764 173.337 18.6764ZM184.863 22.5684V7.30836H189.735V9.26836C190.939 7.84036 192.787 6.88836 194.999 6.88836C198.499 6.88836 200.795 9.35236 200.795 13.1044V22.5684H195.839V14.1404C195.839 12.3484 194.691 11.2004 192.927 11.2004C191.079 11.2004 189.819 12.4884 189.819 14.3924V22.5684H184.863ZM209.852 22.9884C205.904 22.9884 203.244 19.7404 203.244 14.9244C203.244 10.1364 205.904 6.88836 209.852 6.88836C211.812 6.88836 213.94 7.98036 214.948 9.63236V1.00836H219.904V22.5684H215.004V20.1604C213.996 21.8124 211.812 22.9884 209.852 22.9884ZM211.7 18.6764C213.632 18.6764 214.976 17.1924 214.976 14.9244C214.976 12.6844 213.632 11.2004 211.7 11.2004C209.74 11.2004 208.424 12.6844 208.424 14.9244C208.424 17.1924 209.74 18.6764 211.7 18.6764ZM240.78 22.9884C233.892 22.9884 229.468 18.8164 229.524 12.3764C229.468 5.90836 234.088 1.70836 241.06 1.70836C243.804 1.70836 246.38 2.35236 248.872 3.72436L247.388 8.20436C245.512 7.08436 243.384 6.46836 241.34 6.46836C237.588 6.46836 235.012 8.76436 235.012 12.3764C235.012 16.1844 237.336 18.2284 241.34 18.2284C242.18 18.2284 243.076 18.0884 243.804 17.8924V15.3444H239.716V10.9484H249.152V21.1684C246.52 22.3724 243.664 22.9884 240.78 22.9884ZM258.032 22.9884C254.084 22.9884 251.424 19.7404 251.424 14.9244C251.424 10.1364 254.112 6.88836 258.088 6.88836C260.02 6.88836 262.12 7.98036 263.128 9.63236V7.30836H268.084V22.5684H263.184V20.1604C262.176 21.8124 259.992 22.9884 258.032 22.9884ZM259.88 18.6764C261.812 18.6764 263.156 17.1924 263.156 14.9244C263.156 12.6844 261.812 11.2004 259.88 11.2004C257.92 11.2004 256.604 12.6844 256.604 14.9244C256.604 17.1924 257.92 18.6764 259.88 18.6764ZM271.406 22.5684V7.30836H276.362V9.10036C277.454 7.75636 279.078 6.88836 281.122 6.88836C283.502 6.88836 285.294 8.03636 286.19 9.94036C287.31 8.17636 289.13 6.88836 291.622 6.88836C295.066 6.88836 297.334 9.32436 297.334 13.0204V22.5684H292.378V14.0844C292.378 12.3204 291.314 11.2004 289.746 11.2004C288.038 11.2004 286.862 12.4324 286.862 14.3924V22.5684H281.878V14.1404C281.878 12.3484 280.87 11.2004 279.246 11.2004C277.538 11.2004 276.362 12.4884 276.362 14.3924V22.5684H271.406ZM303.126 5.46036C301.642 5.46036 300.382 4.25636 300.41 2.71636C300.438 1.20436 301.642 0.000357866 303.126 0.000357866C304.694 0.000357866 305.842 1.20436 305.87 2.71636C305.898 4.25636 304.694 5.46036 303.126 5.46036ZM300.662 22.5684V7.30836H305.618V22.5684H300.662ZM309.059 22.5684V7.30836H313.931V9.26836C315.135 7.84036 316.983 6.88836 319.195 6.88836C322.695 6.88836 324.991 9.35236 324.991 13.1044V22.5684H320.035V14.1404C320.035 12.3484 318.887 11.2004 317.123 11.2004C315.275 11.2004 314.015 12.4884 314.015 14.3924V22.5684H309.059ZM335.195 28.5884C333.207 28.5884 330.995 28.2804 329.203 27.5524L329.959 23.4364C331.499 24.1084 333.123 24.4164 334.551 24.4164C337.379 24.4164 339.087 23.6884 339.087 21.3924V19.8804C338.079 21.5044 335.979 22.2324 334.019 22.2324C330.155 22.2324 327.439 19.2364 327.439 14.6724C327.439 10.0804 330.155 6.88836 334.019 6.88836C335.979 6.88836 338.163 8.00836 339.143 9.71636V7.30836H344.043V21.5324C344.043 26.2644 340.543 28.5884 335.195 28.5884ZM335.867 18.1164C337.743 18.1164 339.087 16.7164 339.087 14.6724C339.087 12.6284 337.743 11.2004 335.867 11.2004C333.963 11.2004 332.619 12.6284 332.619 14.6724C332.619 16.7164 333.963 18.1164 335.867 18.1164Z" fill="white"/>
</svg>
